<svg width="20" height="18" viewBox="0 0 20 18" fill="none" xmlns="http://www.w3.org/2000/svg">
<path d="M5.65217 0C2.53567 0 0 2.60407 0 5.80465C0 12.3959 7.25883 15.6488 9.72826 17.7628L10 18L10.2717 17.7628C12.7412 15.6488 20 12.3959 20 5.80465C20 2.60407 17.4643 0 14.3478 0C12.5849 0 11.036 0.859884 10 2.16279C8.96399 0.859884 7.41508 0 5.65217 0ZM5.65217 0.893023C7.31997 0.893023 8.77717 1.77209 9.63315 3.09767L10 3.65581L10.3668 3.09767C11.2228 1.77209 12.68 0.893023 14.3478 0.893023C16.9939 0.893023 19.1304 3.08721 19.1304 5.80465C19.1304 11.564 12.8668 14.5448 10 16.8698C7.13315 14.5448 0.869565 11.564 0.869565 5.80465C0.869565 3.08721 3.00611 0.893023 5.65217 0.893023Z" fill="white"/>
</svg>
