<svg width="18" height="18" viewBox="0 0 18 18" fill="none" xmlns="http://www.w3.org/2000/svg">
<path d="M7.33333 0C3.29193 0 0 3.29193 0 7.33333C0 11.3747 3.29193 14.6667 7.33333 14.6667C9.09077 14.6667 10.7047 14.0426 11.9697 13.0066L16.3482 17.3852C16.4157 17.4555 16.4967 17.5117 16.5862 17.5504C16.6758 17.5891 16.7722 17.6096 16.8698 17.6106C16.9673 17.6116 17.0641 17.5931 17.1544 17.5562C17.2448 17.5193 17.3268 17.4648 17.3958 17.3958C17.4648 17.3268 17.5193 17.2448 17.5562 17.1544C17.5931 17.0641 17.6116 16.9673 17.6106 16.8698C17.6096 16.7722 17.5891 16.6758 17.5504 16.5862C17.5117 16.4967 17.4555 16.4157 17.3852 16.3482L13.0066 11.9697C14.0426 10.7047 14.6667 9.09077 14.6667 7.33333C14.6667 3.29193 11.3747 0 7.33333 0ZM7.33333 1.46667C10.5821 1.46667 13.2 4.08458 13.2 7.33333C13.2 10.5821 10.5821 13.2 7.33333 13.2C4.08458 13.2 1.46667 10.5821 1.46667 7.33333C1.46667 4.08458 4.08458 1.46667 7.33333 1.46667Z" fill="white"/>
</svg>
